<?xml version="1.0" encoding="UTF-8" standalone="no"?>
<!-- Created with Inkscape (http://www.inkscape.org/) -->

<svg
   version="1.1"
   id="svg1"
   width="773"
   height="157"
   viewBox="0 0 773 157"
   sodipodi:docname="snus-check.svg"
   inkscape:version="1.3 (0e150ed6c4, 2023-07-21)"
   xmlns:inkscape="http://www.inkscape.org/namespaces/inkscape"
   xmlns:sodipodi="http://sodipodi.sourceforge.net/DTD/sodipodi-0.dtd"
   xmlns="http://www.w3.org/2000/svg"
   xmlns:svg="http://www.w3.org/2000/svg">
  <defs
     id="defs1">
    <filter
       inkscape:label="Sharpen"
       inkscape:menu="Image Effects"
       inkscape:menu-tooltip="Sharpen edges and boundaries within the object, force=0.15"
       style="color-interpolation-filters:sRGB;"
       id="filter1"
       x="0"
       y="0"
       width="1"
       height="1">
      <feConvolveMatrix
         order="3 3"
         kernelMatrix="0 -0.15 0 -0.15 1.6 -0.15 0 -0.15 0"
         divisor="1"
         in="SourceGraphic"
         targetX="1"
         targetY="1"
         id="feConvolveMatrix1" />
    </filter>
  </defs>
  <sodipodi:namedview
     id="namedview1"
     pagecolor="#505050"
     bordercolor="#ffffff"
     borderopacity="1"
     inkscape:showpageshadow="0"
     inkscape:pageopacity="0"
     inkscape:pagecheckerboard="1"
     inkscape:deskcolor="#505050"
     inkscape:zoom="1.4683053"
     inkscape:cx="571.74758"
     inkscape:cy="97.731718"
     inkscape:window-width="1920"
     inkscape:window-height="1129"
     inkscape:window-x="-8"
     inkscape:window-y="-8"
     inkscape:window-maximized="1"
     inkscape:current-layer="g1" />
  <g
     inkscape:groupmode="layer"
     inkscape:label="Image"
     id="g1">
    <path
       style="fill:#000000;stroke-width:1.06825"
       d="m 134.15461,140.95013 v -15.49832 h 3.60792 3.60792 V 94.455154 63.458502 h 3.0925 3.0925 v 15.498326 15.498326 h 3.60792 3.60791 V 63.458502 32.46185 h 3.0925 3.0925 v -7.749163 -7.749163 h 6.70042 6.70042 v 23.247489 23.247489 h -3.60792 -3.60792 v 30.996652 30.996656 h -9.79291 -9.79292 v 15.49832 15.49833 h -6.70042 -6.70042 z m 16.49334,1.66054 v -3.87458 h 3.60792 3.60791 v 3.87458 3.87458 h -3.60791 -3.60792 z m 229.87587,-0.55351 v -2.37639 l 1.80395,0.37308 1.80396,0.37309 v 1.63022 1.63021 l -1.80396,0.37309 -1.80395,0.37309 z m 134.00835,0 v -2.37639 l 1.80396,0.37308 1.80396,0.37309 v 1.63022 1.63021 l -1.80396,0.37309 -1.80396,0.37309 z m 107.20668,0 v -2.37639 l 1.80396,0.37308 1.80396,0.37309 v 1.63022 1.63021 l -1.80396,0.37309 -1.80396,0.37309 z m 80.40501,0 v -2.37639 l 1.80396,0.37308 1.80396,0.37309 v 1.63022 1.63021 l -1.80396,0.37309 -1.80396,0.37309 z M 0.14625551,133.20097 v -7.74916 H 3.7541727 7.3620899 V 109.95348 94.455154 H 3.7541727 0.14625551 V 86.705991 78.956828 H 6.8466732 13.547091 v -7.749163 -7.749163 h -3.0925 -3.0925011 V 47.960176 32.46185 h 3.0925011 3.0925 v -7.749163 -7.749163 h 13.400836 13.400835 v 7.749163 7.749163 h 6.700418 6.700417 v 7.749163 7.749163 H 47.04918 40.348762 V 40.211013 32.46185 H 33.648344 26.947927 V 47.960176 63.458502 H 47.04918 67.150433 v 7.749163 7.749163 h 6.700417 6.700418 v 23.247492 23.24749 h 6.700417 6.700418 V 109.95348 94.455154 h 3.607917 3.60792 V 78.956828 63.458502 h 3.0925 3.0925 V 47.960176 32.46185 h 3.60792 3.60792 V 16.963524 1.4651982 h 9.79292 9.79291 V 16.963524 32.46185 h 3.0925 3.0925 v 15.498326 15.498326 h -3.0925 -3.0925 V 47.960176 32.46185 h -6.70041 -6.70042 v 46.494978 46.494982 h -6.70042 -6.70042 v 7.74916 7.74916 H 93.952103 80.551268 v -7.74916 -7.74916 H 70.75835 60.965432 V 109.95348 94.455154 H 57.357514 53.749597 V 86.705991 78.956828 H 33.648344 13.547091 v 7.749163 7.749163 h 6.700418 6.700418 v 7.749166 7.74916 h 6.700417 6.700418 v 7.74916 7.74917 h 6.700418 6.700417 v 7.74916 7.74916 H 26.947927 0.14625551 Z m 187.61169449,0 v -7.74916 h 3.60792 3.60792 V 109.95348 94.455154 h -3.60792 -3.60792 V 55.709339 16.963524 h 6.70042 6.70042 v 23.247489 23.247489 h 3.0925 3.0925 v 15.498326 15.498326 h 3.60792 3.60791 v 7.749166 7.74916 h 6.70042 6.70042 v -7.74916 -7.749166 h -3.0925 -3.0925 V 78.956828 63.458502 h 3.0925 3.0925 V 40.211013 16.963524 h 6.70042 6.70042 V 9.2143612 1.4651982 h 3.0925 3.0925 V 63.458502 125.45181 h -9.79292 -9.79292 v 7.74916 7.74916 h -20.10125 -20.10126 z m 67.00418,0 v -7.74916 h 3.60792 3.60792 V 109.95348 94.455154 h -3.60792 -3.60792 v -7.749163 -7.749163 h 6.70042 6.70042 v -7.749163 -7.749163 h -3.0925 -3.0925 V 47.960176 32.46185 h 3.0925 3.0925 v -7.749163 -7.749163 h 13.40083 13.40084 v 7.749163 7.749163 h 6.70041 6.70042 v 7.749163 7.749163 h -6.70042 -6.70041 V 40.211013 32.46185 h -6.70042 -6.70042 v 15.498326 15.498326 h 20.10125 20.10126 v 7.749163 7.749163 h 6.70042 6.70041 v 23.247492 23.24749 h -9.79292 -9.79291 V 109.95348 94.455154 h -3.60792 -3.60792 v -7.749163 -7.749163 h -20.10125 -20.10125 v 7.749163 7.749163 h 6.70041 6.70042 v 7.749166 7.74916 h 6.70042 6.70042 v 7.74916 7.74917 h 6.70041 6.70042 v 7.74916 7.74916 H 281.5638 254.76213 Z m 134.00835,0 v -7.74916 h 3.60792 3.60792 V 109.95348 94.455154 h -3.60792 -3.60792 V 78.956828 63.458502 h 3.60792 3.60792 V 47.960176 32.46185 h 3.0925 3.0925 v -7.749163 -7.749163 h 13.40083 13.40084 v 7.749163 7.749163 h 3.0925 3.0925 v 15.498326 15.498326 h -3.0925 -3.0925 V 47.960176 32.46185 h -6.70042 -6.70042 v 30.996652 30.996652 h 6.70042 6.70042 v -7.749163 -7.749163 h 13.40084 13.40083 v 7.749163 7.749163 h -3.60792 -3.60791 v 15.498326 15.49833 h -9.79292 -9.79292 v 7.74916 7.74916 h -20.10125 -20.10126 z m 67.00418,0 v -7.74916 h 6.70042 6.70042 V 78.956828 32.46185 h 6.70041 6.70042 v -7.749163 -7.749163 h 6.70042 6.70042 v 23.247489 23.247489 h 10.30833 10.30834 V 47.960176 32.46185 h 3.0925 3.0925 v -7.749163 -7.749163 h 6.70041 6.70042 v 46.494978 46.494978 h -6.70042 -6.70041 v 7.74916 7.74917 h -3.0925 -3.0925 V 109.95348 94.455154 h -3.60792 -3.60792 v -7.749163 -7.749163 h -6.70042 -6.70041 v 7.749163 7.749163 h 3.0925 3.0925 v 15.498326 15.49833 h -3.0925 -3.0925 v 7.74916 7.74916 h -20.10126 -20.10125 z m 93.80585,0 v -7.74916 h 3.60791 3.60792 V 94.455154 63.458502 h 3.0925 3.0925 v -7.749163 -7.749163 h -6.70041 -6.70042 V 32.46185 16.963524 h 20.10125 20.10125 v 7.749163 7.749163 h 6.70042 6.70042 v 7.749163 7.749163 h -6.70042 -6.70042 V 40.211013 32.46185 h -13.40083 -13.40084 v 7.749163 7.749163 h 6.70042 6.70042 v 7.749163 7.749163 h 6.70042 6.70041 v 7.749163 7.749163 h -13.40083 -13.40084 v 7.749163 7.749163 h 6.70042 6.70042 v 7.749166 7.74916 h 13.40083 13.40084 V 94.455154 78.956828 h 6.70042 6.70041 v 7.749163 7.749163 h -3.60791 -3.60792 v 15.498326 15.49833 h -9.79292 -9.79292 v 7.74916 7.74916 h -20.10125 -20.10125 z m 80.40501,0 v -7.74916 h 3.60792 3.60791 V 109.95348 94.455154 h -3.60791 -3.60792 V 78.956828 63.458502 h 3.60792 3.60791 V 47.960176 32.46185 h 3.0925 3.0925 v -7.749163 -7.749163 h 13.40084 13.40084 v 7.749163 7.749163 h 3.0925 3.0925 v 15.498326 15.498326 h -3.0925 -3.0925 V 47.960176 32.46185 h -6.70042 -6.70042 v 30.996652 30.996652 h 6.70042 6.70042 v -7.749163 -7.749163 h 13.40083 13.40084 v 7.749163 7.749163 h -3.60792 -3.60792 v 15.498326 15.49833 h -9.79292 -9.79291 v 7.74916 7.74916 h -20.10126 -20.10125 z m 80.40501,0 v -7.74916 h 3.60792 3.60792 V 94.455154 63.458502 h -3.60792 -3.60792 V 40.211013 16.963524 h 6.70042 6.70042 v 7.749163 7.749163 h 3.0925 3.0925 v 15.498326 15.498326 h 3.60791 3.60792 v -7.749163 -7.749163 h 6.70042 6.70042 V 32.46185 16.963524 h 6.70041 6.70042 v 7.749163 7.749163 h -3.60791 -3.60792 v 15.498326 15.498326 h -3.0925 -3.0925 v 7.749163 7.749163 h 6.70041 6.70042 v 7.749163 7.749163 h 3.0925 3.0925 v 15.498326 15.49833 h -3.0925 -3.0925 v 7.74916 7.74916 h -6.70042 -6.70041 V 109.95348 78.956828 H 737.1922 723.79137 v 7.749163 7.749163 h 6.70041 6.70042 v 15.498326 15.49833 h -6.70042 -6.70041 v 7.74916 7.74916 h -6.70042 -6.70042 z m 31.95584,-16.60535 v -2.21404 h 1.54625 1.54625 v 2.21404 2.21405 h -1.54625 -1.54625 z m -698.905108,-4.9816 v -3.87459 h 3.607918 3.607917 v 3.87459 3.87458 H 47.04918 43.441262 Z m 254.615878,0 v -3.87459 h 3.60791 3.60792 v 3.87459 3.87458 h -3.60792 -3.60791 z M 592.87551,80.617363 v -3.874582 h 3.60792 3.60792 v 3.874582 3.874581 h -3.60792 -3.60792 z m 176.27253,-0.553512 v -2.376389 l 1.80396,0.373088 1.80396,0.373088 v 1.630213 1.630214 l -1.80396,0.373088 -1.80396,0.373087 z M 58.903765,54.602316 v -2.214047 h 1.54625 1.54625 v 2.214047 2.214046 h -1.54625 -1.54625 z m 254.615875,0 v -2.214047 h 1.54625 1.54625 v 2.214047 2.214046 h -1.54625 -1.54625 z m 268.01671,0 v -2.214047 h 1.54625 1.54625 v 2.214047 2.214046 h -1.54625 -1.54625 z m -483.491343,-2.80693 -1.396264,-1.80675 1.083406,-1.844498 1.083396,-1.844497 h 2.464745 2.46474 v 3.32107 3.32107 l -2.15188,0.330177 -2.151869,0.330178 z M 204.25129,49.620711 v -3.874582 h 3.60792 3.60791 v 3.874582 3.874581 h -3.60791 -3.60792 z m 241.21504,0 v -3.874582 h 3.60791 3.60792 v 3.874582 3.874581 h -3.60792 -3.60791 z m 53.60334,0 v -3.874582 h 3.60791 3.60792 v 3.874582 3.874581 h -3.60792 -3.60791 z m 187.61169,0 v -3.874582 h 3.60792 3.60792 v 3.874582 3.874581 h -3.60792 -3.60792 z m 80.40501,0 v -3.874582 h 3.60792 3.60792 v 3.874582 3.874581 h -3.60792 -3.60792 z M 608.33802,49.067199 V 46.69081 l 1.80395,0.373088 1.80396,0.373088 v 1.630213 1.630214 l -1.80396,0.373088 -1.80395,0.373087 z M 5.3004229,23.605664 v -2.214047 h 1.5462503 1.5462502 v 2.214047 2.214046 H 6.8466732 5.3004229 Z m 254.6158771,0 v -2.214047 h 1.54625 1.54625 v 2.214047 2.214046 h -1.54625 -1.54625 z m 254.61587,0 v -2.214047 h 1.54625 1.54625 v 2.214047 2.214046 h -1.54625 -1.54625 z m 93.80585,0 v -2.214047 h 1.54625 1.54625 v 2.214047 2.214046 h -1.54625 -1.54625 z m -403.08633,-2.80693 -1.39626,-1.80675 1.08341,-1.844498 1.08339,-1.844497 h 2.46474 2.46474 v 3.32107 3.32107 l -2.15188,0.330177 -2.15186,0.330178 z m 536.03342,0 -1.39627,-1.80675 1.08341,-1.844498 1.08339,-1.844497 h 2.46475 2.46473 v 3.32107 3.32107 l -2.15188,0.330177 -2.15186,0.330178 z M 58.903765,18.070547 v -2.376389 l 1.803958,0.373088 1.803959,0.373088 v 1.630213 1.630214 l -1.803959,0.373088 -1.803958,0.373088 z m 254.615875,0 v -2.376389 l 1.80396,0.373088 1.80396,0.373088 v 1.630213 1.630214 l -1.80396,0.373088 -1.80396,0.373088 z m 120.60752,0 v -2.376389 l 1.80396,0.373088 1.80395,0.373088 v 1.630213 1.630214 l -1.80395,0.373088 -1.80396,0.373088 z m 241.21503,0 v -2.376389 l 1.80396,0.373088 1.80396,0.373088 v 1.630213 1.630214 l -1.80396,0.373088 -1.80396,0.373088 z"
       id="path1" />
  </g>
</svg>
