<?xml version="1.0" encoding="UTF-8" standalone="no"?>
<!-- Created with Inkscape (http://www.inkscape.org/) -->

<svg
   version="1.1"
   id="svg1"
   width="512"
   height="512"
   viewBox="0 0 512 512"
   sodipodi:docname="brightness.png"
   xmlns:inkscape="http://www.inkscape.org/namespaces/inkscape"
   xmlns:sodipodi="http://sodipodi.sourceforge.net/DTD/sodipodi-0.dtd"
   xmlns="http://www.w3.org/2000/svg"
   xmlns:svg="http://www.w3.org/2000/svg">
  <defs
     id="defs1" />
  <sodipodi:namedview
     id="namedview1"
     pagecolor="#505050"
     bordercolor="#ffffff"
     borderopacity="1"
     inkscape:showpageshadow="0"
     inkscape:pageopacity="0"
     inkscape:pagecheckerboard="1"
     inkscape:deskcolor="#505050"
     inkscape:export-bgcolor="#ffffff00" />
  <g
     inkscape:groupmode="layer"
     inkscape:label="Image"
     id="g1">
    <path
       style="fill:#000000"
       d="m 249.42371,509.98065 c -2.53699,-1.25581 -4.89713,-3.47826 -6.25,-5.88536 C 241.15156,500.49736 241,498.88704 241,481 c 0,-21.8963 0.81647,-24.84247 8.00404,-28.88211 4.81458,-2.70595 9.21407,-2.68531 14.10972,0.0662 C 270.01762,456.06428 271,459.65385 271,481 c 0,16.50338 -0.20919,18.80067 -2.06011,22.62417 -1.4957,3.08971 -3.22601,4.82002 -6.31572,6.31572 -5.332,2.58117 -8.05137,2.58957 -13.20046,0.0408 z M 81.5,439.50864 c -7.463957,-2.66226 -11.449433,-10.269 -9.389156,-17.92028 1.495969,-5.55561 25.200013,-29.77785 31.492506,-32.18098 11.43235,-4.36605 22.91973,6.17229 19.44945,17.84262 -0.98459,3.31108 -3.94678,6.97053 -13.40829,16.56437 C 93.361177,440.32546 89.627397,442.40754 81.5,439.50864 Z m 339.57328,0.33698 c -5.06864,-1.47085 -29.47366,-25.70868 -31.6659,-31.44897 -2.29435,-6.00767 -1.21563,-10.82369 3.47497,-15.5143 4.69061,-4.6906 9.50663,-5.76932 15.5143,-3.47497 6.31182,2.41051 29.99672,26.62607 31.49887,32.2046 3.06091,11.36737 -7.43737,21.53736 -18.82224,18.23364 z M 238.67499,413.94395 C 171.611,406.14975 117.36892,358.15365 101.42692,292.5 c -6.972664,-28.71543 -5.100029,-61.9103 5.10542,-90.5 4.34995,-12.18603 14.05896,-29.99463 22.4166,-41.1173 32.91886,-43.80973 86.59783,-67.947071 140.29353,-63.084537 22.4312,2.031308 39.83173,7.082277 59.87483,17.380277 40.60016,20.86006 70.4826,59.13092 81.45578,104.32156 5.5135,22.70616 5.5135,50.29384 0,73 -8.84584,36.42967 -29.70245,68.19425 -59.45578,90.55106 -31.93993,23.99984 -73.50137,35.41861 -112.44231,30.89289 z m 42.50963,-31.46452 c 11.04906,-2.29665 22.26324,-6.23639 32.81538,-11.52863 35.36264,-17.7355 59.91777,-49.93771 68.62101,-89.99129 2.57317,-11.84209 2.57317,-38.07693 0,-49.91902 C 376.90664,204.7421 364.98623,182.74696 346.55896,164.5 328.47584,146.59381 306.33884,134.74911 281.18462,129.52057 277.16117,128.68426 273.22367,128 272.43462,128 271.19593,128 271,145.48133 271,256 c 0,110.51867 0.19593,128 1.43462,128 0.78905,0 4.72655,-0.68426 8.75,-1.52057 z M 8.4237112,268.98065 C 3.7288455,266.65669 0,260.91066 0,256 0,251.39818 3.610563,245.58716 8.0040401,243.11789 11.479103,241.16479 13.268399,241 31,241 c 17.915067,0 19.492983,0.1491 23.113756,2.18409 C 58.207549,245.48493 62,251.64803 62,256 c 0,4.76759 -3.881566,10.76425 -8.375833,12.93989 -3.825405,1.85185 -6.119182,2.06003 -22.689891,2.05932 -16.473963,-7e-4 -18.867751,-0.21536 -22.5105648,-2.01856 z m 449.9999988,0 C 453.72885,266.65669 450,260.91066 450,256 c 0,-4.60182 3.61056,-10.41284 8.00404,-12.88211 C 461.4791,241.16479 463.2684,241 481,241 c 17.91507,0 19.49298,0.1491 23.11376,2.18409 C 508.20755,245.48493 512,251.64803 512,256 c 0,4.76759 -3.88157,10.76425 -8.37583,12.93989 -3.82541,1.85185 -6.11918,2.06003 -22.68989,2.05932 -16.47397,-7e-4 -18.86776,-0.21536 -22.51057,-2.01856 z M 102.5,122.10934 c -2.37983,-1.09874 -9.128371,-7.0901 -16.661353,-14.79197 -9.77698,-9.996189 -12.904735,-13.849087 -13.729715,-16.912829 -3.00145,-11.146534 7.258376,-21.350814 18.379602,-18.280095 5.522082,1.52472 29.729256,25.260491 32.104086,31.478904 2.90151,7.59751 -0.68939,15.86783 -8.26381,19.03262 -4.33589,1.81165 -7.02328,1.69201 -11.82881,-0.52663 z m 294.95042,0.48406 c -7.40196,-3.22409 -10.90523,-11.4955 -8.04304,-18.99005 2.37483,-6.218413 26.582,-29.954184 32.10409,-31.478904 11.14204,-3.076467 21.44166,7.218037 18.36606,18.356942 -0.82243,2.978577 -4.1153,7.019748 -13.72972,16.849772 -15.711,16.06332 -20.73003,18.73261 -28.69739,15.26224 z M 249.42371,59.980654 c -2.53699,-1.255815 -4.89713,-3.478259 -6.25,-5.885366 C 241.15156,50.497359 241,48.887042 241,31 c 0,-21.8962996 0.81647,-24.8424722 8.00404,-28.8821144 4.81458,-2.70594466 9.21407,-2.68530153 14.10972,0.066205 C 270.01762,6.0642775 271,9.6538527 271,31 c 0,16.503383 -0.20919,18.800672 -2.06011,22.624167 -1.4957,3.089716 -3.22601,4.820019 -6.31572,6.315725 -5.332,2.581173 -8.05137,2.58957 -13.20046,0.04076 z"
       id="path1" />
  </g>
</svg>
